Coordinates
nRows=5
nColumns=38

# SIMM Motion File Header:
name Coordinates
datacolumns 38
datarows 5
otherdata 1
range 1.44000000000000020000 1.44400000000000020000

Units are S.I. units (second, meters, Newtons, ...)
Angles are in degrees.

endheader
time	pelvis_tilt	pelvis_list	pelvis_rotation	pelvis_tx	pelvis_ty	pelvis_tz	hip_flexion_r	hip_adduction_r	hip_rotation_r	knee_angle_r	ankle_angle_r	subtalar_angle_r	mtp_angle_r	hip_flexion_l	hip_adduction_l	hip_rotation_l	knee_angle_l	ankle_angle_l	subtalar_angle_l	mtp_angle_l	lumbar_extension	lumbar_bending	lumbar_rotation	arm_flex_r	arm_add_r	arm_rot_r	elbow_flex_r	pro_sup_r	wrist_flex_r	wrist_dev_r	arm_flex_l	arm_add_l	arm_rot_l	elbow_flex_l	pro_sup_l	wrist_flex_l	wrist_dev_l
      1.44000000000000020000	     -0.92799710971591132000	      1.09437226183554250000	     -3.06721056327264030000	      0.86480841338591796000	      1.03445220893738240000	     -0.35247129431315027000	    -12.86706968928890900000	      2.26606308059099470000	      2.59951051213052510000	    -44.09614796977992100000	    -24.28152675761462500000	      0.00000000000002776659	      0.00000000000016410621	     20.78978727789207100000	      4.25555659914053130000	      4.76601038385430710000	     -6.77488286266979320000	      4.34824377825293770000	      0.00000000000007417767	      0.00000000000005672645	    -10.74569445061886500000	     -4.92826322890478700000	      8.55085161092425670000	    -17.38250548469655100000	    -23.91788925110904900000	    -14.26578485517970500000	    101.96898319921658000000	     75.29913515142484900000	      0.00000000000000153398	     -0.00000000000000835173	    -37.03844321905980100000	    -15.47051121720772600000	    -15.80373477875203000000	     96.64133828514110300000	     93.32655975605357000000	      0.00000000000003267680	      0.00000000000000729113
      1.44100000000000010000	     -0.87339072721498479000	      1.10737286131219560000	     -3.05738701955754740000	      0.86480082318511786000	      1.03414686865294000000	     -0.35246840669665785000	    -12.71591944293246500000	      2.27536726445386740000	      2.66242682286815580000	    -44.64210790622835400000	    -24.12703099698449800000	      0.00000000000002767861	      0.00000000000016482313	     20.76848451881799200000	      4.30819505290746200000	      4.81364328395456110000	     -7.00899711324155650000	      4.38485315428745450000	      0.00000000000007451776	      0.00000000000005688288	    -10.82518712151762600000	     -4.95978177784106670000	      8.50242324412482730000	    -17.38869350002094900000	    -23.88980490454322900000	    -14.26034217180447200000	    101.94149386257689000000	     75.29745214657604900000	      0.00000000000000154470	     -0.00000000000000837253	    -36.92669678773752700000	    -15.52473287376646700000	    -15.75821721828975800000	     96.65985434115799500000	     93.33545926735041600000	      0.00000000000003282819	      0.00000000000000732510
      1.44200000000000020000	     -0.81776124633672331000	      1.12198418798781920000	     -3.04836652214088840000	      0.86479220308863936000	      1.03383365638584230000	     -0.35246371320699221000	    -12.56428025421987700000	      2.28234187255866330000	      2.72193267741393190000	    -45.18808275058207600000	    -23.97034083293878500000	      0.00000000000002759207	      0.00000000000016553909	     20.74667809179017300000	      4.36265246953993290000	      4.86443147811844150000	     -7.25041989635260630000	      4.41508134175974120000	      0.00000000000007485774	      0.00000000000005703907	    -10.90578830955232800000	     -4.99352964882997700000	      8.45334584001284740000	    -17.39437867872287000000	    -23.86134648946761100000	    -14.25347058285136500000	    101.91238709081192000000	     75.29426047446538900000	      0.00000000000000155514	     -0.00000000000000839254	    -36.81327086259638300000	    -15.58080512862672300000	    -15.71177143077367900000	     96.67772525951022500000	     93.34801406138379300000	      0.00000000000003297881	      0.00000000000000735911
      1.44300000000000010000	     -0.76121461694266557000	      1.13816816406917010000	     -3.04009925545068560000	      0.86478262571743569000	      1.03351237118951470000	     -0.35245732633704968000	    -12.41207888277578400000	      2.28697403850445770000	      2.77792430995057640000	    -45.73396064977552600000	    -23.81179188094081300000	      0.00000000000002750660	      0.00000000000016625551	     20.72438273976829100000	      4.41889986361251190000	      4.91821892749247970000	     -7.49877425648590810000	      4.43882242651277630000	      0.00000000000007519690	      0.00000000000005719674	    -10.98737106552217900000	     -5.02944402170109230000	      8.40355649825725060000	    -17.39958328772539200000	    -23.83255133898465800000	    -14.24516978240825600000	    101.88168095155001000000	     75.28960220316955100000	      0.00000000000000156530	     -0.00000000000000841151	    -36.69822166292011900000	    -15.63869778110997900000	    -15.66442477835281000000	     96.69496332635374400000	     93.36415205714726500000	      0.00000000000003312957	      0.00000000000000739263
      1.44400000000000020000	     -0.70386477984634332000	      1.15588753363288110000	     -3.03253118794004720000	      0.86477215571688260000	      1.03318279909021960000	     -0.35244936669486554000	    -12.25923289004562700000	      2.28925404763971760000	      2.83031179240132810000	    -46.27963509760658700000	    -23.65170999978596800000	      0.00000000000002742212	      0.00000000000016697251	     20.70163032395201700000	      4.47690964396178080000	      4.97482618701160460000	     -7.75369380320954440000	      4.45592019307900960000	      0.00000000000007553611	      0.00000000000005735480	    -11.06980030933858900000	     -5.06746129398645100000	      8.35298985702684150000	    -17.40433066697019300000	    -23.80345529679670600000	    -14.23544240240602000000	    101.84939287650140000000	     75.28352418807371300000	      0.00000000000000157591	     -0.00000000000000842927	    -36.58160399277952700000	    -15.69838140567724600000	    -15.61620189733025800000	     96.71157951371333200000	     93.38378742428672300000	      0.00000000000003328005	      0.00000000000000742614
